<?xml version="1.0" encoding="UTF-8"?>
<svg width="30px" height="30px" viewBox="0 0 30 30" version="1.1" xmlns="http://www.w3.org/2000/svg" xmlns:xlink="http://www.w3.org/1999/xlink">
    <!-- Generator: Sketch 49.3 (51167) - http://www.bohemiancoding.com/sketch -->
    <title>facebook-logo-in-circular-button-outlined-social-symbol</title>
    <desc>Created with Sketch.</desc>
    <defs></defs>
    <g id="Meridix" stroke="none" stroke-width="1" fill="none" fill-rule="evenodd">
        <g id="Home" transform="translate(-170.000000, -5484.000000)" fill="#FFFFFF" fill-rule="nonzero">
            <g id="Group-11" transform="translate(170.000000, 5482.000000)">
                <g id="facebook-logo-in-circular-button-outlined-social-symbol" transform="translate(0.000000, 2.000000)">
                    <path d="M30,15 C30,6.71588235 23.2840686,0 15,0 C6.71588235,0 0,6.71588235 0,15 C0,23.2840686 6.71588235,30 15,30 C23.2840686,30 30,23.2840686 30,15 Z M1.36362745,15 C1.36362745,7.46862745 7.46862745,1.36362745 15,1.36362745 C22.5313725,1.36362745 28.6363725,7.46862745 28.6363725,15 C28.6363725,22.5313725 22.5313725,28.6363725 15,28.6363725 C7.46862745,28.6363725 1.36362745,22.5313725 1.36362745,15 Z" id="Shape"></path>
                    <path d="M15.5754412,23.6576961 L15.5754412,15 L18.4322549,15 L18.8836275,12.1309314 L15.5754412,12.1309314 L15.5754412,10.6923039 C15.5754412,9.94367647 15.8208824,9.22911765 16.8954412,9.22911765 L19.0431373,9.22911765 L19.0431373,6.3654902 L15.9940686,6.3654902 C13.4304412,6.3654902 12.7308824,8.05362745 12.7308824,10.3936765 L12.7308824,12.1296078 L10.9718137,12.1296078 L10.9718137,15 L12.7308824,15 L12.7308824,23.6576961 L15.5754412,23.6576961 Z" id="Shape"></path>
                </g>
            </g>
        </g>
    </g>
</svg>