<?xml version="1.0" encoding="UTF-8"?>
<svg width="30px" height="30px" viewBox="0 0 30 30" version="1.1" xmlns="http://www.w3.org/2000/svg" xmlns:xlink="http://www.w3.org/1999/xlink">
    <!-- Generator: Sketch 49.3 (51167) - http://www.bohemiancoding.com/sketch -->
    <title>google-plus-circular-button</title>
    <desc>Created with Sketch.</desc>
    <defs></defs>
    <g id="Meridix" stroke="none" stroke-width="1" fill="none" fill-rule="evenodd">
        <g id="Home" transform="translate(-270.000000, -5482.000000)" fill="#FFFFFF" fill-rule="nonzero">
            <g id="Group-11" transform="translate(170.000000, 5482.000000)">
                <g id="google-plus-circular-button" transform="translate(100.000000, 0.000000)">
                    <path d="M17.115,19.7181863 C17.115,18.2468137 16.2626961,17.5213725 15.3245588,16.7318137 L14.5568137,16.1345098 C14.3222549,15.9435784 14.0031863,15.6872549 14.0031863,15.2181863 C14.0031863,14.7490686 14.3236275,14.4504412 14.6004412,14.1736275 C15.495,13.47 16.3909314,12.7240686 16.3909314,11.1463725 C16.3909314,9.525 15.3668137,8.6727451 14.8773039,8.2677451 L16.1986765,8.2677451 L17.5623039,7.5 L13.17,7.5 C12.0190686,7.5 10.5695588,7.6704902 9.35318627,8.6727451 C8.43686275,9.46093137 7.98955882,10.5491176 7.98955882,11.5295588 C7.98955882,13.1918627 9.26862745,14.8773039 11.5281863,14.8773039 C11.7423039,14.8773039 11.9754902,14.8554902 12.2113725,14.835 C12.105,15.0913725 11.9986275,15.3040686 11.9986275,15.6668627 C11.9986275,16.3268627 12.3395588,16.7331863 12.6381863,17.1163725 C11.6795588,17.1804902 9.8877451,17.2868627 8.56637255,18.0968137 C7.3077451,18.8427451 6.92455882,19.9309314 6.92455882,20.6986275 C6.92455882,22.2763725 8.4177451,23.7476961 11.5091176,23.7476961 C15.1745588,23.7477451 17.115,21.7213725 17.115,19.7181863 Z M12.5304412,14.2813725 C10.6963725,14.2813725 9.86455882,11.9141176 9.86455882,10.4863725 C9.86455882,9.93137255 9.97093137,9.3572549 10.3336275,8.90862745 C10.6745588,8.48181373 11.2718137,8.20362745 11.8268137,8.20362745 C13.5968137,8.20362745 14.5131863,10.5927451 14.5131863,12.1268137 C14.5131863,12.5113725 14.4709314,13.1931863 13.98,13.6840686 C13.6390686,14.025 13.0636275,14.28 12.5304412,14.2813725 Z M12.5522549,22.8518137 C10.2708824,22.8518137 8.7995098,21.765 8.7995098,20.2513725 C8.7995098,18.7377451 10.1645098,18.2263235 10.6336275,18.0559314 C11.5295098,17.7572549 12.6804412,17.7136765 12.8726961,17.7136765 C13.0854412,17.7136765 13.1918137,17.7136765 13.3622549,17.7354902 C14.9836275,18.8864216 15.6858824,19.4618627 15.6858824,20.55 C15.6858824,21.8713725 14.5990686,22.8518137 12.5522549,22.8518137 Z" id="Shape"></path>
                    <polygon id="Shape" points="17.3072549 15.5768627 19.6158824 15.5768627 19.6158824 17.8841176 20.7695588 17.8841176 20.7695588 15.5768627 23.0768627 15.5768627 23.0768627 14.4231863 20.7695588 14.4231863 20.7695588 12.1159314 19.6158824 12.1159314 19.6158824 14.4231863 17.3072549 14.4231863"></polygon>
                    <path d="M30,15 C30,6.71588235 23.2840686,0 15,0 C6.71588235,0 0,6.71588235 0,15 C0,23.2840686 6.71588235,30 15,30 C23.2840686,30 30,23.2840686 30,15 Z M1.36362745,15 C1.36362745,7.46862745 7.46862745,1.36362745 15,1.36362745 C22.5313725,1.36362745 28.6363725,7.46862745 28.6363725,15 C28.6363725,22.5313725 22.5313725,28.6363725 15,28.6363725 C7.46862745,28.6363725 1.36362745,22.5313725 1.36362745,15 Z" id="Shape"></path>
                </g>
            </g>
        </g>
    </g>
</svg>