<?xml version="1.0" encoding="UTF-8"?>
<svg width="30px" height="30px" viewBox="0 0 30 30" version="1.1" xmlns="http://www.w3.org/2000/svg" xmlns:xlink="http://www.w3.org/1999/xlink">
    <!-- Generator: Sketch 49.3 (51167) - http://www.bohemiancoding.com/sketch -->
    <title>twitter-circular-button</title>
    <desc>Created with Sketch.</desc>
    <defs></defs>
    <g id="Meridix" stroke="none" stroke-width="1" fill="none" fill-rule="evenodd">
        <g id="Home" transform="translate(-220.000000, -5484.000000)" fill="#FFFFFF" fill-rule="nonzero">
            <g id="Group-11" transform="translate(170.000000, 5482.000000)">
                <g id="twitter-circular-button" transform="translate(50.000000, 2.000000)">
                    <path d="M21.4323039,12.0177451 C21.4323039,11.8663725 21.4295588,11.7163725 21.4227451,11.5677451 C22.0704902,11.085 22.6323039,10.4809314 23.0768627,9.78955882 C22.4823039,10.0568627 21.8441176,10.2354902 21.1731863,10.3104412 C21.8577451,9.88906863 22.3827451,9.21544118 22.6309314,8.40681373 C21.99,8.79544118 21.2809314,9.07362745 20.5268137,9.21818627 C19.9227451,8.53088235 19.0609314,8.09318627 18.1076961,8.07681373 C16.2776961,8.04681373 14.7940686,9.59318627 14.7940686,11.5308824 C14.7940686,11.8063235 14.8226961,12.0736275 14.879951,12.3313235 C12.1240686,12.1540686 9.68181373,10.7195098 8.04813725,8.55681373 C7.76313725,9.075 7.5995098,9.68044118 7.5995098,10.3295588 C7.5995098,11.5568627 8.1845098,12.6477451 9.07357843,13.2913725 C8.5295098,13.2668627 8.0195098,13.1018627 7.5722549,12.8318137 C7.5722549,12.8468137 7.5722549,12.8618137 7.5722549,12.8768137 C7.5722549,14.5923039 8.715,16.0295588 10.2313235,16.365 C9.95313725,16.4440686 9.65995098,16.485 9.35857843,16.4836765 C9.1445098,16.4823039 8.93720588,16.4591176 8.73539216,16.4154412 C9.15676471,17.8213725 10.3813235,18.8481863 11.8308333,18.8822549 C10.6962745,19.8231373 9.26720588,20.384951 7.71539216,20.3808824 C7.44808824,20.3808824 7.18357843,20.3631863 6.92446078,20.3304412 C8.39176471,21.3368137 10.1330882,21.9231373 12.0053431,21.9231373 C18.0995098,21.9245588 21.4323039,16.62 21.4323039,12.0177451 Z" id="Shape"></path>
                    <path d="M30,15 C30,6.71588235 23.2840686,0 15,0 C6.71588235,0 0,6.71588235 0,15 C0,23.2840686 6.71588235,30 15,30 C23.2840686,30 30,23.2840686 30,15 Z M1.36362745,15 C1.36362745,7.46862745 7.46862745,1.36362745 15,1.36362745 C22.5313725,1.36362745 28.6363725,7.46862745 28.6363725,15 C28.6363725,22.5313725 22.5313725,28.6363725 15,28.6363725 C7.46862745,28.6363725 1.36362745,22.5313725 1.36362745,15 Z" id="Shape"></path>
                </g>
            </g>
        </g>
    </g>
</svg>