<?xml version="1.0" encoding="UTF-8"?>
<svg width="35px" height="35px" viewBox="0 0 35 35" version="1.1" xmlns="http://www.w3.org/2000/svg" xmlns:xlink="http://www.w3.org/1999/xlink">
    <!-- Generator: Sketch 49.3 (51167) - http://www.bohemiancoding.com/sketch -->
    <title>facebook-logo-in-circular-button-outlined-social-symbol</title>
    <desc>Created with Sketch.</desc>
    <defs></defs>
    <g id="Inside-Pages" stroke="none" stroke-width="1" fill="none" fill-rule="evenodd">
        <g id="Contact" transform="translate(-781.000000, -557.000000)" fill="#BD292F" fill-rule="nonzero">
            <g id="Group-11" transform="translate(781.000000, 555.000000)">
                <g id="facebook-logo-in-circular-button-outlined-social-symbol" transform="translate(0.000000, 2.000000)">
                    <path d="M35,17.5 C35,7.83519608 27.1647467,0 17.5,0 C7.83519608,0 0,7.83519608 0,17.5 C0,27.1647467 7.83519608,35 17.5,35 C27.1647467,35 35,27.1647467 35,17.5 Z M1.59089869,17.5 C1.59089869,8.71339869 8.71339869,1.59089869 17.5,1.59089869 C26.2866013,1.59089869 33.4091013,8.71339869 33.4091013,17.5 C33.4091013,26.2866013 26.2866013,33.4091013 17.5,33.4091013 C8.71339869,33.4091013 1.59089869,26.2866013 1.59089869,17.5 Z" id="Shape"></path>
                    <path d="M18.171348,27.6006454 L18.171348,17.5 L21.5042974,17.5 L22.0308987,14.1527533 L18.171348,14.1527533 L18.171348,12.4743546 C18.171348,11.6009559 18.4576961,10.7673039 19.711348,10.7673039 L22.2169935,10.7673039 L22.2169935,7.42640523 L18.6597467,7.42640523 C15.668848,7.42640523 14.8526961,9.39589869 14.8526961,12.1259559 L14.8526961,14.1512092 L12.8004493,14.1512092 L12.8004493,17.5 L14.8526961,17.5 L14.8526961,27.6006454 L18.171348,27.6006454 Z" id="Shape"></path>
                </g>
            </g>
        </g>
    </g>
</svg>