<?xml version="1.0" encoding="UTF-8"?>
<svg width="35px" height="35px" viewBox="0 0 35 35" version="1.1" xmlns="http://www.w3.org/2000/svg" xmlns:xlink="http://www.w3.org/1999/xlink">
    <!-- Generator: Sketch 49.3 (51167) - http://www.bohemiancoding.com/sketch -->
    <title>google-plus-circular-button</title>
    <desc>Created with Sketch.</desc>
    <defs></defs>
    <g id="Inside-Pages" stroke="none" stroke-width="1" fill="none" fill-rule="evenodd">
        <g id="Contact" transform="translate(-881.000000, -555.000000)" fill="#BD292F" fill-rule="nonzero">
            <g id="Group-11" transform="translate(781.000000, 555.000000)">
                <g id="google-plus-circular-button" transform="translate(100.000000, 0.000000)">
                    <path d="M19.9675,23.0045507 C19.9675,21.2879493 18.9731454,20.4416013 17.878652,19.5204493 L16.9829493,18.8235948 C16.7092974,18.6008415 16.3370507,18.3017974 16.3370507,17.7545507 C16.3370507,17.2072467 16.7108987,16.858848 17.033848,16.5358987 C18.0775,15.715 19.1227533,14.8447467 19.1227533,13.0041013 C19.1227533,11.1125 17.9279493,10.1182026 17.3568546,9.64570261 L18.8984559,9.64570261 L20.4893546,8.75 L15.365,8.75 C14.0222467,8.75 12.331152,8.94890523 10.9120507,10.1182026 C9.84300654,11.0377533 9.32115196,12.3073039 9.32115196,13.451152 C9.32115196,15.3905065 10.8133987,17.3568546 13.4495507,17.3568546 C13.6993546,17.3568546 13.9714052,17.3314052 14.2466013,17.3075 C14.1225,17.6066013 13.9983987,17.8547467 13.9983987,18.2780065 C13.9983987,19.0480065 14.396152,19.5220507 14.7445507,19.9691013 C13.626152,20.0439052 11.5357026,20.1680065 9.99410131,21.1129493 C8.52570261,21.9832026 8.07865196,23.2527533 8.07865196,24.1483987 C8.07865196,25.9891013 9.82070261,27.7056454 13.4273039,27.7056454 C17.703652,27.7057026 19.9675,25.3416013 19.9675,23.0045507 Z M14.618848,16.6616013 C12.4791013,16.6616013 11.508652,13.8998039 11.508652,12.2341013 C11.508652,11.5866013 11.6327533,10.9167974 12.0558987,10.3933987 C12.453652,9.89544935 13.1504493,9.57089869 13.7979493,9.57089869 C15.8629493,9.57089869 16.9320507,12.3582026 16.9320507,14.1479493 C16.9320507,14.5966013 16.8827533,15.3920507 16.31,15.9647467 C15.9122467,16.3625 15.2408987,16.66 14.618848,16.6616013 Z M14.6442974,26.6604493 C11.9826961,26.6604493 10.2660948,25.3925 10.2660948,23.6266013 C10.2660948,21.8607026 11.8585948,21.2640441 12.4058987,21.0652533 C13.4510948,20.7167974 14.793848,20.6659559 15.0181454,20.6659559 C15.266348,20.6659559 15.3904493,20.6659559 15.5892974,20.6914052 C17.4808987,22.0341585 18.3001961,22.7055065 18.3001961,23.975 C18.3001961,25.5166013 17.0322467,26.6604493 14.6442974,26.6604493 Z" id="Shape"></path>
                    <polygon id="Shape" points="20.1917974 18.1730065 22.8851961 18.1730065 22.8851961 20.8648039 24.231152 20.8648039 24.231152 18.1730065 26.9230065 18.1730065 26.9230065 16.8270507 24.231152 16.8270507 24.231152 14.1352533 22.8851961 14.1352533 22.8851961 16.8270507 20.1917974 16.8270507"></polygon>
                    <path d="M35,17.5 C35,7.83519608 27.1647467,0 17.5,0 C7.83519608,0 0,7.83519608 0,17.5 C0,27.1647467 7.83519608,35 17.5,35 C27.1647467,35 35,27.1647467 35,17.5 Z M1.59089869,17.5 C1.59089869,8.71339869 8.71339869,1.59089869 17.5,1.59089869 C26.2866013,1.59089869 33.4091013,8.71339869 33.4091013,17.5 C33.4091013,26.2866013 26.2866013,33.4091013 17.5,33.4091013 C8.71339869,33.4091013 1.59089869,26.2866013 1.59089869,17.5 Z" id="Shape"></path>
                </g>
            </g>
        </g>
    </g>
</svg>