<?xml version="1.0" encoding="UTF-8"?>
<svg width="25px" height="23px" viewBox="0 0 25 23" version="1.1" xmlns="http://www.w3.org/2000/svg" xmlns:xlink="http://www.w3.org/1999/xlink">
    <!-- Generator: Sketch 49.3 (51167) - http://www.bohemiancoding.com/sketch -->
    <title>home (2)</title>
    <desc>Created with Sketch.</desc>
    <defs></defs>
    <g id="--M:-Meridix" stroke="none" stroke-width="1" fill="none" fill-rule="evenodd">
        <g id="Home" transform="translate(-235.000000, -36.000000)" fill="#FFFFFF" fill-rule="nonzero">
            <g id="home-(2)" transform="translate(235.000000, 36.000000)">
                <path d="M24.7341137,8.76687475 L12.8837448,0.124962124 C12.6552296,-0.0416540412 12.344781,-0.0416540412 12.1163634,0.124962124 L0.265896887,8.76687475 C-0.0235557064,8.97798998 -0.0864462159,9.38280987 0.125516286,9.67110544 C0.337478787,9.95940102 0.743972181,10.0219429 1.03337595,9.81092491 L12.5000053,1.4487971 L23.9666346,9.81087627 C24.0822594,9.89525428 24.2166342,9.93586271 24.349837,9.93586271 C24.5498367,9.93586271 24.7471996,9.84418978 24.8744455,9.67105681 C25.0864568,9.38280987 25.0235663,8.97798998 24.7341137,8.76687475 Z" id="Shape"></path>
                <path d="M21.7841521,9.93589744 C21.4242813,9.93589744 21.1324558,10.2317331 21.1324558,10.59666 L21.1324558,21.114273 L15.918983,21.114273 L15.918983,15.3730944 C15.918983,13.5511919 14.457063,12.0690334 12.6602564,12.0690334 C10.8634498,12.0690334 9.40152978,13.5512912 9.40152978,15.3730944 L9.40152978,21.1143227 L4.18800806,21.1143227 L4.18800806,10.5967096 C4.18800806,10.2317828 3.89618253,9.93594711 3.53631172,9.93594711 C3.17644092,9.93594711 2.88461538,10.2317828 2.88461538,10.5967096 L2.88461538,21.7751349 C2.88461538,22.1400618 3.17644092,22.4358974 3.53631172,22.4358974 L10.0532261,22.4358974 C10.3959509,22.4358974 10.676411,22.1674301 10.702375,21.8265932 C10.7039427,21.8111458 10.7049225,21.7942579 10.7049225,21.7751349 L10.7049225,15.3731441 C10.7049225,14.2799529 11.5820647,13.3906082 12.6602564,13.3906082 C13.7384481,13.3906082 14.6155904,14.2800026 14.6155904,15.3731441 L14.6155904,21.7751349 C14.6155904,21.7941586 14.6165701,21.8107484 14.6181378,21.8259972 C14.6438078,22.1670824 14.924366,22.4358974 15.2672867,22.4358974 L21.7842011,22.4358974 C22.1441209,22.4358974 22.4358974,22.1400618 22.4358974,21.7751349 L22.4358974,10.5967096 C22.4358484,10.2317331 22.1440719,9.93589744 21.7841521,9.93589744 Z" id="Shape"></path>
            </g>
        </g>
    </g>
</svg>