<?xml version="1.0" encoding="UTF-8"?>
<svg width="25px" height="17px" viewBox="0 0 25 17" version="1.1" xmlns="http://www.w3.org/2000/svg" xmlns:xlink="http://www.w3.org/1999/xlink">
    <!-- Generator: Sketch 49.3 (51167) - http://www.bohemiancoding.com/sketch -->
    <title>menu (3)</title>
    <desc>Created with Sketch.</desc>
    <defs></defs>
    <g id="--M:-Meridix" stroke="none" stroke-width="1" fill="none" fill-rule="evenodd">
        <g id="Home" transform="translate(-275.000000, -39.000000)" fill="#FFFFFF" fill-rule="nonzero">
            <g id="menu-(3)" transform="translate(275.000000, 39.000000)">
                <path d="M0.943396226,2 L24.0566038,2 C24.5773585,2 25,1.552 25,1 C25,0.448 24.5773585,0 24.0566038,0 L0.943396226,0 C0.422641509,0 0,0.448 0,1 C0,1.552 0.422641509,2 0.943396226,2 Z" id="Shape"></path>
                <path d="M0.943396226,10 L24.0566038,10 C24.5773585,10 25,9.552 25,9 C25,8.448 24.5773585,8 24.0566038,8 L0.943396226,8 C0.422641509,8 0,8.448 0,9 C0,9.552 0.422641509,10 0.943396226,10 Z" id="Shape"></path>
                <path d="M0.943396226,17 L24.0566038,17 C24.5773585,17 25,16.552 25,16 C25,15.448 24.5773585,15 24.0566038,15 L0.943396226,15 C0.422641509,15 0,15.448 0,16 C0,16.552 0.422641509,17 0.943396226,17 Z" id="Shape"></path>
            </g>
        </g>
    </g>
</svg>