<?xml version="1.0" encoding="UTF-8"?>
<svg width="37px" height="37px" viewBox="0 0 37 37" version="1.1" xmlns="http://www.w3.org/2000/svg" xmlns:xlink="http://www.w3.org/1999/xlink">
    <!-- Generator: Sketch 49.3 (51167) - http://www.bohemiancoding.com/sketch -->
    <title>Group</title>
    <desc>Created with Sketch.</desc>
    <defs></defs>
    <g id="Inside-Pages" stroke="none" stroke-width="1" fill="none" fill-rule="evenodd">
        <g id="Contact" transform="translate(-263.000000, -422.000000)" stroke="#BD292F">
            <g id="Group-3" transform="translate(264.000000, 423.000000)">
                <g id="Group">
                    <circle id="Oval" cx="17.5" cy="17.5" r="17.5"></circle>
                    <g id="call-answer" transform="translate(9.570007, 9.470001)" fill-rule="nonzero">
                        <path d="M15.0156565,12.1490196 L12.6435441,9.77126702 C12.1710633,9.29961744 11.3886259,9.31394738 10.8996852,9.80417281 L9.70460481,11.0016957 C9.62910143,10.9599885 9.55095036,10.9164237 9.46878362,10.8702052 C8.71410283,10.4510988 7.68119363,9.87666283 6.59427149,8.7864818 C5.50412799,7.69400091 4.93046115,6.65715909 4.51102244,5.90028182 C4.46676184,5.82009608 4.42435462,5.74278518 4.38247694,5.66936636 L5.18455143,4.86666866 L5.57888119,4.47095891 C6.06857203,3.98002583 6.08207526,3.19603667 5.61069764,2.72301601 L3.23858527,0.344998103 C2.76720765,-0.127359129 1.98441719,-0.11302919 1.49472635,0.377903887 L0.826183845,1.05180905 C0.620281579,1.35667407 0.432957293,1.68732413 0.293556252,2.04389192 C0.165054881,2.38329917 0.0850504215,2.70718231 0.0484681287,3.03172888 C-0.264753963,5.63429339 0.921853821,8.01284204 4.14215467,11.2404838 C8.59358867,15.7016944 12.1808598,15.3646754 12.3356174,15.3482226 C12.6726688,15.3078422 12.9956873,15.2271257 13.3239571,15.0993504 C13.6766299,14.96127 14.0063118,14.7737866 14.2921744,14.5495939 L14.9840607,13.8978913 C15.4727366,13.4070466 15.4868135,12.6227921 15.0156565,12.1490196 Z" id="Shape"></path>
                    </g>
                </g>
            </g>
        </g>
    </g>
</svg>