<?xml version="1.0" encoding="UTF-8"?>
<svg width="30px" height="29px" viewBox="0 0 30 29" version="1.1" xmlns="http://www.w3.org/2000/svg" xmlns:xlink="http://www.w3.org/1999/xlink">
    <!-- Generator: Sketch 49.3 (51167) - http://www.bohemiancoding.com/sketch -->
    <title>softball</title>
    <desc>Created with Sketch.</desc>
    <defs></defs>
    <g id="Inside-Pages" stroke="none" stroke-width="1" fill="none" fill-rule="evenodd">
        <g id="Search---Events---Hide" transform="translate(-228.000000, -467.000000)" fill="#35393D" fill-rule="nonzero">
            <g id="Group-2" transform="translate(220.000000, 467.000000)">
                <g id="softball" transform="translate(8.000000, 0.000000)">
                    <path d="M26.6525253,0 C25.7473737,0 24.9252525,0.361689511 24.3221212,0.948448264 C23.7189899,0.361689511 22.8966667,8.98838327e-17 21.9916162,8.98838327e-17 C21.0864646,8.98838327e-17 20.2642424,0.361689511 19.6611111,0.948448264 C19.0579798,0.361689511 18.2357576,8.98838327e-17 17.3307071,8.98838327e-17 C16.4255556,8.98838327e-17 15.6033333,0.361689511 15.000202,0.948549464 C14.3970707,0.361689511 13.5747475,2.69651498e-16 12.669697,2.69651498e-16 C11.4847475,2.69651498e-16 10.4424242,0.62066082 9.84737374,1.55392905 C9.26070707,1.5774075 8.29171717,1.69368653 7.18464646,2.136235 C5.67919192,2.73797138 3.64666667,4.07765961 2.30323232,7.04758185 C0.967373737,7.48830871 0,8.74946559 0,10.2334653 L0,13.9673478 C0,17.3271944 0.983232323,20.580882 2.84353535,23.3764363 C2.85515152,23.393944 2.86727273,23.4110468 2.88,23.4277448 L6.4220202,28.097628 C6.61424242,28.3511345 6.91393939,28.5 7.23171717,28.5 L24.3221212,28.5 C24.5918182,28.5 24.8505051,28.3926266 25.0412121,28.2015606 C28.2388889,24.9976635 30,20.7380459 30,16.2072118 L30,3.35387579 C30,1.50454336 28.4982828,0 26.6525253,0 Z M19.1630303,21.2408085 C18.7553535,20.9815336 18.2090909,21.0425573 17.8706061,21.4110273 C17.5525253,21.7575368 17.5205051,22.2648533 17.760303,22.6445565 C16.4922222,23.6180012 14.9083838,24.1982831 13.1912121,24.1982831 C11.4740404,24.1982831 9.89020202,23.6180012 8.62222222,22.6446577 C8.86191919,22.2650557 8.83,21.7579416 8.51222222,21.4113309 C8.17373737,21.0425573 7.62727273,20.9813312 7.21949495,21.2408085 C6.24454545,19.9691268 5.6630303,18.3796765 5.6630303,16.6558323 C5.6630303,14.9321905 6.24444444,13.3428414 7.21919192,12.0712609 C7.38525253,12.1769139 7.57424242,12.2298416 7.7630303,12.2298416 C8.03767677,12.2298416 8.31161616,12.1190274 8.51212121,11.900435 C8.82989899,11.5539255 8.86191919,11.0468113 8.62212121,10.6671082 C9.89020202,9.69366345 11.4739394,9.11348271 13.1911111,9.11348271 C14.9083838,9.11348271 16.4922222,9.69376465 17.760202,10.6672094 C17.520404,11.0469125 17.5524242,11.5542291 17.8705051,11.9007386 C18.0710101,12.1191286 18.3447475,12.2298416 18.6192929,12.2298416 C18.8080808,12.2298416 18.9970707,12.1769139 19.1631313,12.0712609 C20.1379798,13.3428414 20.7192929,14.9321905 20.7192929,16.6558323 C20.7194949,18.3796765 20.1379798,19.969228 19.1630303,21.2408085 Z M17.3305051,2.0377672 C18.0547475,2.0377672 18.6440404,2.62816916 18.6440404,3.35387579 L18.6440404,8.79085647 C17.8476768,8.23496378 16.9637374,7.79696932 16.0169697,7.50288154 L16.0169697,3.35387579 C16.0169697,2.62816916 16.6062626,2.0377672 17.3305051,2.0377672 Z M12.6694949,2.0377672 C13.3937374,2.0377672 13.9831313,2.62816916 13.9831313,3.35387579 L13.9831313,7.10890917 C13.7219192,7.08735353 13.4578788,7.0758167 13.1912121,7.0758167 C12.5636364,7.0758167 11.950202,7.13734642 11.3560606,7.25352425 L11.3560606,3.35387579 C11.3559596,2.62816916 11.9451515,2.0377672 12.6694949,2.0377672 Z M9.3220202,3.64644556 L9.3220202,7.89594311 C8.33070707,8.33717598 7.42787879,8.94235317 6.64757576,9.67706661 C6.45010101,8.4985903 5.63777778,7.52666359 4.55272727,7.10546836 C6.02050505,4.52263689 8.11959596,3.82648072 9.3220202,3.64644556 Z M4.6610101,12.2634401 C3.98020202,13.5799535 3.62909091,15.0736684 3.62909091,16.6559335 C3.62909091,21.9384827 7.91868687,26.2361516 13.1912121,26.2361516 C18.4638384,26.2361516 22.7534343,21.9384827 22.7534343,16.6559335 C22.7534343,14.4082771 21.9764646,12.3393402 20.6779798,10.703439 L20.6779798,3.35387579 C20.6779798,2.62827036 21.2672727,2.0377672 21.9916162,2.0377672 C22.7158586,2.0377672 23.3052525,2.62816916 23.3052525,3.35387579 L23.3052525,11.915109 C23.3052525,12.4777821 23.7606061,12.9339926 24.3222222,12.9339926 C24.8838384,12.9339926 25.3391919,12.4777821 25.3391919,11.915109 L25.3391919,3.35387579 C25.3391919,2.62827036 25.9283838,2.0377672 26.6527273,2.0377672 C27.3769697,2.0377672 27.9663636,2.62816916 27.9663636,3.35387579 L27.9663636,16.207313 C27.9663636,20.0547422 26.5229293,23.6800369 23.8931313,26.462334 L7.73616162,26.462334 L4.51868687,22.2204265 C2.89292929,19.766524 2.03393939,16.9133868 2.03393939,13.967449 L2.03393939,10.2335665 C2.03393939,9.50796108 2.62323232,8.91745792 3.34757576,8.91745792 C4.07191919,8.91745792 4.66111111,9.50785988 4.66111111,10.2335665 L4.66111111,12.2634401 L4.6610101,12.2634401 Z" id="Shape"></path>
                    <path d="M16.2214572,17.9971399 C16.8343415,17.9568118 17.2933415,17.4956612 17.2464686,16.9671066 C17.2328711,16.8128494 17.2259065,16.6558275 17.2259065,16.5010937 C17.226017,16.3445485 17.2329816,16.1871452 17.2466897,16.0332694 C17.2936731,15.5047148 16.8350048,15.0433735 16.2221205,15.0028548 C15.611005,14.9623361 15.074289,15.357894 15.0273056,15.8864487 C15.0093967,16.0886609 15.0001105,16.2951633 15,16.500617 C15,16.7043546 15.0091756,16.9104757 15.0270845,17.1131646 C15.0716358,17.6169313 15.5593785,18 16.1355605,18 C16.1639717,17.9999047 16.1926039,17.999142 16.2214572,17.9971399 Z" id="Shape"></path>
                    <path d="M17.5546161,12.1374132 C17.1246528,11.8587228 16.5718941,12.0174091 16.3194016,12.4915884 C16.124363,12.8580312 15.9540628,13.2437656 15.8131618,13.638305 C15.6303131,14.1500783 15.8579776,14.7285316 16.3216424,14.9302532 C16.430276,14.9775425 16.542226,15 16.6523834,15 C17.012165,15 17.3521381,14.7607833 17.4921428,14.369014 C17.5988045,14.0705373 17.7277845,13.7783922 17.8755872,13.500889 C18.1279004,13.0265118 17.9843104,12.4162025 17.5546161,12.1374132 Z" id="Shape"></path>
                    <path d="M17.492377,18.6310726 C17.3096019,18.1192197 16.7858376,17.8679428 16.3217733,18.0696568 C15.8580676,18.2713708 15.630383,18.8497033 15.8130685,19.3615562 C15.9538027,19.7556849 16.124118,20.1414048 16.3191738,20.5081305 C16.4872481,20.8240073 16.7886164,21 17.0982317,21 C17.2533978,21 17.4107153,20.9557792 17.554318,20.8626881 C17.9841399,20.5842061 18.1280115,19.9739199 17.8755864,19.4995606 C17.7278603,19.2216722 17.5988689,18.9294392 17.492377,18.6310726 Z" id="Shape"></path>
                    <path d="M10.0283722,15.003115 C9.4154578,15.0434421 8.95654586,15.5046773 9.00342099,16.0332197 C9.0170192,16.1873779 9.02398413,16.3442055 9.02398413,16.4995078 C9.02398413,16.655382 9.0170192,16.8126863 9.00331043,16.9667492 C8.95632475,17.4952916 9.41501558,17.9566222 10.02793,17.9971399 C10.0568953,17.9990466 10.0856395,18 10.1142731,18 C10.6903729,18 11.178029,17.6171309 11.2228036,17.1135665 C11.240824,16.910787 11.25,16.704194 11.25,16.4995078 C11.25,16.2956795 11.240824,16.0896586 11.2229141,15.8869744 C11.1761496,15.358432 10.6431661,14.9605952 10.0283722,15.003115 Z" id="Shape"></path>
                    <path d="M8.75762298,14.368949 C8.89755041,14.7607961 9.2376431,15 9.59754614,15 C9.70762358,15 9.81958345,14.9776426 9.92822666,14.9303559 C10.3919324,14.7286451 10.619617,14.1503218 10.4369315,13.6384769 C10.2961973,13.2443545 10.125882,12.8586407 9.93082621,12.4919208 C9.67849071,12.017668 9.12577286,11.8585945 8.69568201,12.1373688 C8.26586007,12.4158465 8.12198849,13.026123 8.37441364,13.5004747 C8.52213972,13.7783588 8.65104148,14.0705871 8.75762298,14.368949 Z" id="Shape"></path>
                    <path d="M9.92850254,18.0696145 C9.46503019,17.8680682 8.9408789,18.1189869 8.7579458,18.6308174 C8.65119748,18.9294264 8.52231076,19.2216042 8.37451229,19.4990394 C8.12202696,19.9733707 8.2657025,20.5837481 8.69538465,20.8625686 C8.83906019,20.9556737 8.99644898,21 9.15168667,21 C9.46117613,21 9.76241972,20.8240799 9.93056401,20.5083538 C10.125597,20.141969 10.2958924,19.7561915 10.4367895,19.361707 C10.6197226,18.8499754 10.3920645,18.2714575 9.92850254,18.0696145 Z" id="Shape"></path>
                </g>
            </g>
        </g>
    </g>
</svg>