<?xml version="1.0" encoding="UTF-8"?>
<svg width="35px" height="35px" viewBox="0 0 35 35" version="1.1" xmlns="http://www.w3.org/2000/svg" xmlns:xlink="http://www.w3.org/1999/xlink">
    <!-- Generator: Sketch 49.3 (51167) - http://www.bohemiancoding.com/sketch -->
    <title>twitter-circular-button</title>
    <desc>Created with Sketch.</desc>
    <defs></defs>
    <g id="Inside-Pages" stroke="none" stroke-width="1" fill="none" fill-rule="evenodd">
        <g id="Contact" transform="translate(-831.000000, -557.000000)" fill="#BD292F" fill-rule="nonzero">
            <g id="Group-11" transform="translate(781.000000, 555.000000)">
                <g id="twitter-circular-button" transform="translate(50.000000, 2.000000)">
                    <path d="M25.0043546,14.0207026 C25.0043546,13.8441013 25.001152,13.6691013 24.9932026,13.4957026 C25.7489052,12.9325 26.4043546,12.2277533 26.9230065,11.421152 C26.2293546,11.7330065 25.4848039,11.9414052 24.7020507,12.028848 C25.5007026,11.5372467 26.1132026,10.751348 26.4027533,9.80794935 C25.655,10.261348 24.8277533,10.5858987 23.9479493,10.7545507 C23.2432026,9.95269608 22.2377533,9.44205065 21.1256454,9.42294935 C18.9906454,9.38794935 17.2597467,11.1920507 17.2597467,13.4526961 C17.2597467,13.7740441 17.2931454,14.0858987 17.3599428,14.3865441 C14.1447467,14.1797467 11.2954493,12.5060948 9.38949346,9.98294935 C9.05699346,10.5875 8.86609477,11.293848 8.86609477,12.051152 C8.86609477,13.4830065 9.54859477,14.7557026 10.5858415,15.5066013 C9.95109477,15.4780065 9.35609477,15.2855065 8.83429739,14.9704493 C8.83429739,14.9879493 8.83429739,15.0054493 8.83429739,15.0229493 C8.83429739,17.0243546 10.1675,18.701152 11.9365441,19.0925 C11.6119935,19.1847467 11.2699428,19.2325 10.9183415,19.2309559 C10.6685948,19.2293546 10.4267402,19.2023039 10.1912908,19.151348 C10.6828922,20.7916013 12.1115441,21.9895507 13.8026389,22.0292974 C12.4789869,23.1269935 10.8117402,23.7824428 9.00129085,23.7776961 C8.68943627,23.7776961 8.3808415,23.7570507 8.07853758,23.718848 C9.79039216,24.8929493 11.8219363,25.5769935 14.0062337,25.5769935 C21.1160948,25.578652 25.0043546,19.39 25.0043546,14.0207026 Z" id="Shape"></path>
                    <path d="M35,17.5 C35,7.83519608 27.1647467,0 17.5,0 C7.83519608,0 0,7.83519608 0,17.5 C0,27.1647467 7.83519608,35 17.5,35 C27.1647467,35 35,27.1647467 35,17.5 Z M1.59089869,17.5 C1.59089869,8.71339869 8.71339869,1.59089869 17.5,1.59089869 C26.2866013,1.59089869 33.4091013,8.71339869 33.4091013,17.5 C33.4091013,26.2866013 26.2866013,33.4091013 17.5,33.4091013 C8.71339869,33.4091013 1.59089869,26.2866013 1.59089869,17.5 Z" id="Shape"></path>
                </g>
            </g>
        </g>
    </g>
</svg>